<svg xmlns="http://www.w3.org/2000/svg" xmlns:xlink="http://www.w3.org/1999/xlink" version="1.1" x="0px" y="0px" viewBox="0 0 100 125" style="enable-background:new 0 0 100 100;" xml:space="preserve"><path d="M94.4,91.6c0.8,0.8,0.8,2,0,2.8C94,94.8,93.5,95,93,95s-1-0.2-1.4-0.6L50,52.8L8.4,94.4C8,94.8,7.5,95,7,95s-1-0.2-1.4-0.6  c-0.8-0.8-0.8-2,0-2.8L47.2,50L5.6,8.4c-0.8-0.8-0.8-2,0-2.8c0.8-0.8,2-0.8,2.8,0L50,47.2L91.6,5.6c0.8-0.8,2-0.8,2.8,0  c0.8,0.8,0.8,2,0,2.8L52.8,50L94.4,91.6z"/><text x="0" y="115" fill="#000000" font-size="5px" font-weight="bold" font-family="'Helvetica Neue', Helvetica, Arial-Unicode, Arial, Sans-serif">Created by IconMark</text><text x="0" y="120" fill="#000000" font-size="5px" font-weight="bold" font-family="'Helvetica Neue', Helvetica, Arial-Unicode, Arial, Sans-serif">from the Noun Project</text></svg>